<?xml version="1.0" encoding="utf-8"?>
<!-- Generator: Adobe Illustrator 23.0.4, SVG Export Plug-In . SVG Version: 6.00 Build 0)  -->
<svg version="1.1" id="Layer_1" xmlns="http://www.w3.org/2000/svg" xmlns:xlink="http://www.w3.org/1999/xlink" x="0px" y="0px"
	 width="57px" height="61px" viewBox="0 0 57 61" style="enable-background:new 0 0 57 61;" xml:space="preserve">
<style type="text/css">
	.st0{fill:#FFFFFF;}
</style>
<g>
	<g>
		<g>
			<path class="st0" d="M34.6,21.3c0,0.6,0.5,1,1,1h10.2c0.6,0,1-0.5,1-1c0-0.6-0.5-1-1-1H35.6C35,20.3,34.6,20.8,34.6,21.3z"/>
			<path class="st0" d="M40.7,27.4c0,0.6,0.5,1,1,1h6.1c0.6,0,1-0.5,1-1c0-0.6-0.5-1-1-1h-6.1C41.1,26.4,40.7,26.9,40.7,27.4z"/>
			<path class="st0" d="M39.7,16.2c0.6,0,1-0.5,1-1c0-0.6-0.5-1-1-1h-2c-0.6,0-1,0.5-1,1c0,0.6,0.5,1,1,1H39.7z"/>
			<path class="st0" d="M27.5,26.4c-0.6,0-1,0.5-1,1s0.5,1,1,1h10.2c0.6,0,1-0.5,1-1s-0.5-1-1-1H27.5z"/>
			<path class="st0" d="M32.5,54.9H13.2c-1.7,0-3.1-1.4-3.1-3.1V5.1c0-0.6-0.5-1-1-1C6.3,4,4.1,6.3,4.1,9.1c0,0.6,0.5,1,1,1
				s1-0.5,1-1c0-1.3,0.9-2.5,2-2.9v45.6c0,2.8,2.3,5.1,5.1,5.1h19.3c0.6,0,1-0.5,1-1C33.6,55.4,33.1,54.9,32.5,54.9z"/>
			<path class="st0" d="M17.3,22.4h14.2c0.6,0,1-0.5,1-1c0-0.6-0.5-1-1-1H17.3c-0.6,0-1,0.5-1,1C16.3,21.9,16.7,22.4,17.3,22.4z"/>
			<path class="st0" d="M17.3,16.2h4.1c0.6,0,1-0.5,1-1c0-0.6-0.5-1-1-1h-4.1c-0.6,0-1,0.5-1,1C16.3,15.8,16.7,16.2,17.3,16.2z"/>
			<path class="st0" d="M33.6,14.2h-8.1c-0.6,0-1,0.5-1,1c0,0.6,0.5,1,1,1h8.1c0.6,0,1-0.5,1-1C34.6,14.7,34.1,14.2,33.6,14.2z"/>
			<path class="st0" d="M47.8,0H9.2C4.1,0,0,4.1,0,9.1v0v0v0v0c0,3.2,1.8,6.3,4.6,7.9c0.5,0.3,1.1,0.1,1.4-0.4
				c0.3-0.5,0.1-1.1-0.4-1.4C3.4,14,2,11.7,2,9.1C2,5.2,5.2,2,9.2,2h38.6c3.9,0,7.1,3.2,7.1,7.1v42.7c0,0.5-0.1,1-0.4,1.5
				c-0.3,0.5-0.1,1.1,0.4,1.4c0.2,0.1,0.3,0.1,0.5,0.1c0.3,0,0.7-0.2,0.9-0.5c0.5-0.8,0.7-1.6,0.7-2.5V9.2C57,4.1,52.9,0,47.8,0z"/>
			<path class="st0" d="M50.9,46.8c0-3.4-2.7-6.1-6.1-6.1c-3.4,0-6.1,2.7-6.1,6.1c0,3.4,2.7,6.1,6.1,6.1
				C48.1,52.9,50.9,50.1,50.9,46.8z M44.8,50.8c-2.2,0-4.1-1.8-4.1-4.1c0-2.2,1.8-4.1,4.1-4.1c2.2,0,4.1,1.8,4.1,4.1
				C48.8,49,47,50.8,44.8,50.8z"/>
			<path class="st0" d="M42.9,53.9c-0.5-0.3-1.1-0.1-1.4,0.4L39.3,58L39,57.5c-0.2-0.3-0.5-0.4-0.8-0.5l-0.6,0l2.2-3.9
				c0.3-0.5,0.1-1.1-0.4-1.4c-0.5-0.3-1.1-0.1-1.4,0.4l-3,5.3c-0.2,0.3-0.2,0.7,0,1c0.2,0.3,0.5,0.5,0.8,0.5l1.8,0.1l1,1.5
				c0.2,0.3,0.5,0.5,0.8,0.5h0c0.4,0,0.7-0.2,0.9-0.5l3-5.2C43.6,54.8,43.4,54.2,42.9,53.9z"/>
			<path class="st0" d="M51.5,52.2c-0.3-0.5-0.9-0.7-1.4-0.4c-0.5,0.3-0.7,0.9-0.4,1.4l2.2,3.8l-0.6,0c-0.3,0-0.6,0.2-0.8,0.5
				L50.2,58L48,54.3c-0.3-0.5-0.9-0.7-1.4-0.4c-0.5,0.3-0.7,0.9-0.4,1.4l3,5.2c0.2,0.3,0.5,0.5,0.9,0.5h0c0.3,0,0.7-0.2,0.8-0.5
				l1-1.5l1.8-0.1c0.4,0,0.7-0.2,0.8-0.5s0.2-0.7,0-1L51.5,52.2z"/>
			<path class="st0" d="M17.3,28.5h6.1c0.6,0,1-0.5,1-1c0-0.6-0.5-1-1-1h-6.1c-0.6,0-1,0.5-1,1C16.3,28,16.7,28.5,17.3,28.5z"/>
			<path class="st0" d="M17.3,34.6h12.2c0.6,0,1-0.5,1-1s-0.5-1-1-1H17.3c-0.6,0-1,0.5-1,1S16.7,34.6,17.3,34.6z"/>
			<path class="st0" d="M17.4,47.2c0.3,0.5,0.9,0.7,1.4,0.5c0.5-0.3,0.7-0.9,0.5-1.4c-1-2-1.2-3.8-0.6-4.8c0.3-0.5,0.9-0.8,1.7-0.8
				c0.5,0,0.7,0.2,0.8,0.3c0.8,1.1,0,4.4-0.7,6.4c-0.2,0.4,0,1,0.4,1.2c0.4,0.3,0.9,0.2,1.3-0.1c0.4-0.4,0.9-0.9,1.3-1.2v0.5
				c0,0.4,0.2,0.8,0.6,0.9c0.4,0.2,0.8,0.1,1.1-0.2c0.5-0.5,1-0.9,1.5-1.2c0,0,0,0,0,0.1c-0.2,0.3-0.1,0.7,0,1
				c0.2,0.3,0.5,0.5,0.9,0.5h4.1c0.6,0,1-0.5,1-1c0-0.6-0.5-1-1-1h-2.6c0.1-0.5,0.1-1-0.2-1.4c-0.3-0.4-0.7-0.7-1.2-0.7
				c-0.6,0-1.4,0.4-2,0.9c-0.1-0.4-0.3-0.8-0.7-1c-0.3-0.1-0.6-0.3-1.5,0.3c0.3-1.8,0.4-3.8-0.4-5c-0.4-0.6-1.1-1.2-2.5-1.2
				c-1.5,0-2.8,0.6-3.5,1.8C15.9,42,16.1,44.5,17.4,47.2z"/>
			<path class="st0" d="M44.8,33.5c0-0.6-0.5-1-1-1H33.6c-0.6,0-1,0.5-1,1s0.5,1,1,1h10.2C44.3,34.6,44.8,34.1,44.8,33.5z"/>
		</g>
	</g>
</g>
</svg>
