<?xml version="1.0" encoding="utf-8"?>
<!-- Generator: Adobe Illustrator 23.0.4, SVG Export Plug-In . SVG Version: 6.00 Build 0)  -->
<svg version="1.1" id="Layer_1" xmlns="http://www.w3.org/2000/svg" xmlns:xlink="http://www.w3.org/1999/xlink" x="0px" y="0px"
	 width="61px" height="61px" viewBox="0 0 61 61" style="enable-background:new 0 0 61 61;" xml:space="preserve">
<style type="text/css">
	.st0{fill:#FFFFFF;}
</style>
<g>
	<path class="st0" d="M30.5,15.9l7.2-6h9.5V0H23.6v9.8h6.9V15.9z M25.6,7.9V2h19.7v5.9H37l-4.6,3.8V7.9H25.6z"/>
	<path class="st0" d="M27.5,3.9h2v2h-2V3.9z"/>
	<path class="st0" d="M31.5,3.9h7.9v2h-7.9V3.9z"/>
	<path class="st0" d="M41.3,3.9h2v2h-2V3.9z"/>
	<path class="st0" d="M50.1,59l-0.8-8c3.3-0.5,5.8-3.4,5.8-6.8V31.5h-3.9v-1.4c0-1.3-0.7-2.5-1.9-3.2c1.2-1.1,1.9-2.6,1.9-4.3v-2
		c0-3.3-2.6-5.9-5.9-5.9s-5.9,2.6-5.9,5.9v2c0,2.5,1.6,4.7,3.9,5.5L38,33.5h-5.5c-0.1-1.6-1.2-3.1-2.8-3.5l-4-1.2V27
		c1.2-1.1,2-2.6,2-4.4v-2c0-3.3-2.6-5.9-5.9-5.9s-5.9,2.6-5.9,5.9v2c0,1.7,0.8,3.3,2,4.4v1.8l-4,1.2c-1.7,0.5-2.9,2-2.9,3.8v3.7H6.9
		v5.9h2V59H0v2h61v-2H50.1z M41.3,43.3v-4.5l7-7c0.5-0.5,0.8-1.2,0.9-1.9c0,0.1,0,0.1,0,0.2v12.2c0,1.6-1.3,3-3,3h-7.9v-2H41.3z
		 M38.4,51.2h5l0.8,7.9h-5.8V51.2z M45.4,51.2h2l0.8,7.9h-2L45.4,51.2z M51.2,42.3v-8.9h2v10.8c0,2.7-2.2,4.9-4.9,4.9h-9.8v-2h7.9
		C49,47.2,51.2,45,51.2,42.3z M41.3,22.6v-2c0-2.2,1.8-3.9,3.9-3.9c2.2,0,3.9,1.8,3.9,3.9v2c0,2.2-1.8,3.9-3.9,3.9
		C43.1,26.6,41.3,24.8,41.3,22.6z M38.8,35.4l6.6-6.6c0.2-0.2,0.5-0.3,0.8-0.3c0.6,0,1.1,0.5,1.1,1.1c0,0.3-0.1,0.6-0.3,0.8l-7,7
		H29.5c-0.5,0-1-0.4-1-1s0.4-1,1-1H38.8z M17.7,20.7c0-2.2,1.8-3.9,3.9-3.9s3.9,1.8,3.9,3.9v2c0,2.2-1.8,3.9-3.9,3.9
		s-3.9-1.8-3.9-3.9V20.7z M21.6,28.5c0.7,0,1.4-0.1,2-0.3v1.1c-0.2,0.4-0.9,1.3-2,1.3s-1.7-0.9-2-1.3v-1.1
		C20.3,28.4,21,28.5,21.6,28.5z M12.8,33.7c0-0.9,0.6-1.7,1.4-1.9l4.1-1.2c0.6,0.7,1.7,1.8,3.4,1.8s2.8-1.1,3.4-1.8l4.1,1.2
		c0.8,0.2,1.3,0.9,1.4,1.6h-0.9c-1.6,0-3,1.3-3,3c0,0.3,0.1,0.7,0.2,1h-14V33.7z M8.9,39.4h30.5v2H8.9V39.4z M10.8,47.2h3v-2h-3v-2
		h25.6v2H15.7v2h20.7V59h-2.3l-2-3.9h-17l-2,3.9h-2.3V47.2z M31.9,59H15.4l1-2h14.5L31.9,59z"/>
</g>
</svg>
