<?xml version="1.0" encoding="utf-8"?>
<!-- Generator: Adobe Illustrator 23.0.4, SVG Export Plug-In . SVG Version: 6.00 Build 0)  -->
<svg version="1.1" id="Layer_1" xmlns="http://www.w3.org/2000/svg" xmlns:xlink="http://www.w3.org/1999/xlink" x="0px" y="0px"
	 width="61px" height="61px" viewBox="0 0 61 61" style="enable-background:new 0 0 61 61;" xml:space="preserve">
<style type="text/css">
	.st0{fill:#FFFFFF;}
</style>
<title>004 - Printer</title>
<desc>Created with Sketch.</desc>
<g id="Page-1">
	<g>
		<path id="Shape" class="st0" d="M60.9,24.1C60.9,24,60.9,24,60.9,24.1c-0.1-0.2-0.1-0.3-0.2-0.3l-8.7-9.5c-1.2-1.3-2.8-2-4.5-2
			h-4.9V2c0-1.1-0.9-2-2-2H20.3c-1.1,0-2,0.9-2,2v10.2h-4.9c-1.7,0-3.4,0.7-4.5,2l-8.7,9.5c-0.1,0.1-0.1,0.2-0.2,0.3c0,0,0,0,0,0.1
			C0,24.2,0,24.2,0,24.3c0,0,0,0,0,0.1v19.3c0,3.4,2.7,6.1,6.1,6.1h7.1l-3.7,4.9c-0.5,0.6-0.5,1.4-0.2,2.1c0.3,0.7,1,1.1,1.8,1.1
			h5.9L17,58.1c-0.3,0.6-0.2,1.4,0.1,1.9c0.4,0.6,1,0.9,1.7,0.9h23.3c0.7,0,1.3-0.4,1.7-0.9c0.4-0.6,0.4-1.3,0.1-1.9L43.9,58h5.9
			c0.8,0,1.5-0.4,1.8-1.1c0.3-0.7,0.3-1.5-0.2-2.1l-3.7-4.9h7.1c3.4,0,6.1-2.7,6.1-6.1V24.4c0,0,0,0,0-0.1
			C61,24.2,61,24.2,60.9,24.1z M20.3,2h20.3v16.3H20.3V2z M10.4,15.6c0.8-0.8,1.9-1.3,3-1.3h4.9v4.1h-1c-0.6,0-1,0.5-1,1
			c0,0.6,0.5,1,1,1h26.4c0.6,0,1-0.5,1-1c0-0.6-0.5-1-1-1h-1v-4.1h4.9c1.1,0,2.2,0.5,3,1.3l7.1,7.8H3.3L10.4,15.6z M45.8,47.1
			l-2-2.7v-1.7c0-1.7-1.4-3-3-3H20.3c-1.7,0-3.1,1.4-3.1,3v1.7l-2,2.7v-7.5c0-3.9,3.2-7.1,7.1-7.1h16.3c3.9,0,7.1,3.2,7.1,7.1V47.1z
			 M41.7,43.7H19.3v-1c0-0.6,0.5-1,1-1h20.3c0.6,0,1,0.5,1,1V43.7z M18.9,59l4.2-9.2h15l4.2,9.2H18.9z M43,55.9l-3.4-7.5l0,0
			c0-0.1-0.1-0.2-0.2-0.3c0,0,0,0-0.1-0.1c-0.1-0.1-0.1-0.1-0.2-0.1c0,0-0.1,0-0.1,0c-0.1,0-0.2-0.1-0.4-0.1H22.4
			c-0.1,0-0.2,0-0.4,0.1c0,0-0.1,0-0.1,0c-0.1,0-0.2,0.1-0.2,0.1c0,0,0,0-0.1,0.1c-0.1,0.1-0.1,0.2-0.2,0.3l0,0L18,55.9h-6.8
			l7.6-10.2h23.4l7.6,10.2H43z M59,43.7c0,2.2-1.8,4.1-4.1,4.1h-7.1v-8.1c0-5.1-4.1-9.1-9.1-9.2H22.4c-5.1,0-9.1,4.1-9.2,9.2v8.1
			H6.1C3.9,47.8,2,46,2,43.7V25.4H59V43.7z"/>
		<path class="st0" d="M53.9,34.6c1.7,0,3-1.4,3-3c0-1.7-1.4-3-3-3c-1.7,0-3.1,1.4-3.1,3C50.8,33.2,52.2,34.6,53.9,34.6z M53.9,30.5
			c0.6,0,1,0.5,1,1s-0.5,1-1,1s-1-0.5-1-1S53.3,30.5,53.9,30.5z"/>
		<circle id="Oval" class="st0" cx="53.9" cy="37.6" r="1"/>
		<circle class="st0" cx="53.9" cy="40.7" r="1"/>
		<circle class="st0" cx="53.9" cy="43.7" r="1"/>
		<path class="st0" d="M26.4,53.9h8.1c0.6,0,1-0.5,1-1s-0.5-1-1-1h-8.1c-0.6,0-1,0.5-1,1S25.9,53.9,26.4,53.9z"/>
		<path class="st0" d="M36.6,54.9H24.4c-0.6,0-1,0.5-1,1s0.5,1,1,1h12.2c0.6,0,1-0.5,1-1S37.2,54.9,36.6,54.9z"/>
		<path class="st0" d="M5.1,30.5c0.6,0,1-0.5,1-1v-1c0-0.6-0.5-1-1-1s-1,0.5-1,1v1C4.1,30,4.5,30.5,5.1,30.5z"/>
		<path class="st0" d="M5.1,40.7c0.6,0,1-0.5,1-1v-6.1c0-0.6-0.5-1-1-1s-1,0.5-1,1v6.1C4.1,40.2,4.5,40.7,5.1,40.7z"/>
	</g>
</g>
</svg>
