<?xml version="1.0" encoding="utf-8"?>
<!-- Generator: Adobe Illustrator 23.0.4, SVG Export Plug-In . SVG Version: 6.00 Build 0)  -->
<svg version="1.1" id="Layer_1" xmlns="http://www.w3.org/2000/svg" xmlns:xlink="http://www.w3.org/1999/xlink" x="0px" y="0px"
	 width="48.8px" height="61px" viewBox="0 0 48.8 61" style="enable-background:new 0 0 48.8 61;" xml:space="preserve">
<style type="text/css">
	.st0{fill:#FFFFFF;}
</style>
<g>
	<g>
		<g>
			<path class="st0" d="M12.4,39.8c1.1,0,2.1-0.4,2.9-1.2c0.5-0.5,0.9-1.2,1-1.8l2.1,2.1c0.8,0.8,1.8,1.2,2.9,1.2
				c1.1,0,2.1-0.4,2.9-1.2c0.8-0.8,1.2-1.8,1.2-2.9c0-1.1-0.4-2.1-1.2-2.9l-1.8-1.8c0.7-0.2,1.3-0.5,1.8-1c0.8-0.8,1.2-1.8,1.2-2.9
				c0-1.1-0.4-2.1-1.2-2.9L21.6,22c0.7-0.2,1.3-0.5,1.8-1c0.8-0.8,1.2-1.8,1.2-2.9c0-1.1-0.4-2.1-1.2-2.9L16.3,8V1c0-0.6-0.5-1-1-1
				s-1,0.5-1,1v5.4C12.8,5.9,11,6.1,9.8,7.3C8.6,8.6,8.3,10.4,9.1,12c-0.8,0.1-1.5,0.5-2.1,1.1c-1.3,1.3-1.5,3.1-0.8,4.6
				c-0.8,0.2-1.5,0.5-2.1,1.1c-1.3,1.3-1.5,3.1-0.8,4.6c-0.8,0.2-1.5,0.5-2.1,1.1C0.4,25.3,0,26.3,0,27.4c0,1.1,0.4,2.1,1.2,2.9
				l8.3,8.3C10.3,39.4,11.3,39.8,12.4,39.8z M11.3,8.7c0.4-0.4,0.9-0.6,1.4-0.6c0.5,0,1.1,0.2,1.4,0.6l0.4,0.4l7.5,7.5
				c0.4,0.4,0.6,0.9,0.6,1.4c0,0.5-0.2,1.1-0.6,1.4c-0.8,0.8-2.1,0.8-2.9,0l-7.9-7.9C10.5,10.8,10.5,9.5,11.3,8.7z M8.4,14.5
				c0.4-0.4,0.9-0.6,1.4-0.6s1.1,0.2,1.4,0.6L22.8,26c0.4,0.4,0.6,0.9,0.6,1.4c0,0.5-0.2,1.1-0.6,1.4c-0.8,0.8-2.1,0.8-2.9,0
				l-4.5-4.5l-5.6-5.6c0,0,0,0,0,0l-1.4-1.4C7.6,16.6,7.6,15.3,8.4,14.5z M5.5,20.2c0.4-0.4,0.9-0.6,1.4-0.6c0.5,0,1.1,0.2,1.4,0.6
				l5.6,5.6l8.8,8.8c0.4,0.4,0.6,0.9,0.6,1.4c0,0.5-0.2,1.1-0.6,1.4c-0.8,0.8-2.1,0.8-2.9,0l-4.6-4.6c0,0,0,0,0,0l-4.2-4.2l-5.6-5.6
				C4.7,22.3,4.7,21,5.5,20.2z M2,27.4c0-0.5,0.2-1.1,0.6-1.4c0.4-0.4,0.9-0.6,1.4-0.6c0.5,0,1.1,0.2,1.4,0.6l0.6,0.6l7.7,7.7
				c0.8,0.8,0.8,2.1,0,2.9c-0.8,0.8-2.1,0.8-2.9,0l-8.3-8.3C2.2,28.5,2,28,2,27.4z"/>
			<path class="st0" d="M44.7,25.4c0,0.6,0.5,1,1,1c0.6,0,1-0.5,1-1c0-7.3-3.1-11.7-4.9-14.3c-0.5-0.8-1.2-1.7-1.2-2V1
				c0-0.6-0.5-1-1-1c-0.6,0-1,0.5-1,1v8.1c0,1,0.7,1.9,1.6,3.2C42,14.9,44.7,18.7,44.7,25.4z"/>
			<path class="st0" d="M15.2,56.9c-0.6,0-1,0.5-1,1v2c0,0.6,0.5,1,1,1s1-0.5,1-1v-2C16.3,57.4,15.8,56.9,15.2,56.9z"/>
			<path class="st0" d="M42.2,26.6c-2.4-1.6-9.9-5.9-10.3-6.2c-0.7-0.3-1.4-0.3-2.1,0.1c-1.5,0.9-2.4,3.4-2.4,4.8
				c0,2,1.4,3.1,2.8,4.4c0.5,0.4,1,0.9,1.5,1.4l5.1,5.1c0.3,0.3,0.7,0.7,0.7,0.8c0,0.1,0,0.3,0,0.5c-0.2,0.6-2.1,2.8-3.7,4.4
				L22.6,52.1c-0.3,0.3-0.9,0.7-1.3,0.7h-9.2c-1.1,0-2-0.9-2-2c0-1.1,0.9-2,2-2h7.1c1.4,0,2.6-1.2,2.8-1.3l7.1-7.1
				c0.4-0.4,0.4-1,0-1.4c-0.4-0.4-1-0.4-1.4,0L20.6,46c-0.3,0.3-0.9,0.7-1.3,0.7h-7.1H9.1c-1.1,0-2-0.9-2-2c0-1.1,0.9-2,2-2h8.1
				c0.6,0,1-0.5,1-1c0-0.6-0.5-1-1-1H9.1H6.1c-1.1,0-2-0.9-2-2c0-0.5,0.2-1,0.5-1.4c0.4-0.4,0.3-1.1-0.1-1.4
				c-0.4-0.4-1.1-0.3-1.4,0.1c-0.7,0.7-1,1.7-1,2.7c0,2.1,1.6,3.8,3.6,4c-0.4,0.6-0.6,1.3-0.6,2.1c0,2.1,1.6,3.8,3.6,4
				c-0.4,0.6-0.6,1.3-0.6,2.1c0,2.2,1.8,4.1,4.1,4.1h9.2c1.4,0,2.6-1.2,2.7-1.3l11.2-10.2c4.4-4.4,4.4-5.4,4.4-5.8
				c0-1.3-0.2-1.6-1.3-2.8l-5.1-5.1c-0.6-0.6-1.1-1.1-1.6-1.5c-1.4-1.2-2.1-1.9-2.1-2.9c0-1.3,1.1-3.2,1.5-3.2
				c0.1,0,7.8,4.5,10.1,6.1c2.6,1.8,5.6,4.5,5.6,10.3c0,4.4-3.4,10.3-5.7,14.2c-1.6,2.8-2.4,4.2-2.4,5.1v2c0,0.6,0.5,1,1,1
				c0.6,0,1-0.5,1-1v-2c0-0.5,1.1-2.4,2.1-4.1c2.5-4.3,6-10.3,6-15.2C48.8,31.8,45,28.5,42.2,26.6z"/>
		</g>
	</g>
</g>
</svg>
